HIERARCHY
ROOT newVegas:Hips
{
	OFFSET 0.000000 96.479958 0.000000
	CHANNELS 6 Xposition Yposition Zposition Xrotation Yrotation Zrotation
	JOINT newVegas:Pelvis
	{
		OFFSET 0.000000 0.000000 0.000000
		CHANNELS 3 Xrotation Yrotation Zrotation
		JOINT newVegas:LeftUpLeg
		{
			OFFSET 18.735201 -5.666702 -4.541200
			CHANNELS 3 Xrotation Yrotation Zrotation
			JOINT newVegas:LeftLeg
			{
				OFFSET -0.021200 -31.938179 0.493100
				CHANNELS 3 Xrotation Yrotation Zrotation
				JOINT newVegas:LeftFoot
				{
					OFFSET 0.021200 -31.938179 -4.336299
					CHANNELS 3 Xrotation Yrotation Zrotation
					JOINT newVegas:LeftToeBase
					{
						OFFSET 0.943001 -26.722000 15.023500
						CHANNELS 3 Xrotation Yrotation Zrotation
						End Site
						{
							OFFSET 0.000000 30.670183 0.000000
						}
					}
				}
				JOINT newVegas:Left_PantLeg
				{
					OFFSET 0.663870 -9.044666 -1.108900
					CHANNELS 3 Xrotation Yrotation Zrotation
					End Site
					{
						OFFSET 1.415995 20.635357 0.000000
					}
				}
			}
		}
		JOINT newVegas:RightUpLeg
		{
			OFFSET -18.735201 -5.666702 -4.541200
			CHANNELS 3 Xrotation Yrotation Zrotation
			JOINT newVegas:RightLeg
			{
				OFFSET 0.018946 -31.938133 0.493100
				CHANNELS 3 Xrotation Yrotation Zrotation
				JOINT newVegas:RightFoot
				{
					OFFSET -0.018946 -31.938126 -4.336299
					CHANNELS 3 Xrotation Yrotation Zrotation
					JOINT newVegas:RightToeBase
					{
						OFFSET -0.943001 -26.722004 15.023500
						CHANNELS 3 Xrotation Yrotation Zrotation
						End Site
						{
							OFFSET 0.000000 30.670187 0.000000
						}
					}
				}
				JOINT newVegas:Right_PantLeg
				{
					OFFSET -0.661674 -9.044716 -1.108900
					CHANNELS 3 Xrotation Yrotation Zrotation
					End Site
					{
						OFFSET -1.415958 20.635269 0.000000
					}
				}
			}
		}
	}
	JOINT newVegas:Spine
	{
		OFFSET 0.000000 10.199997 -0.299500
		CHANNELS 3 Xrotation Yrotation Zrotation
		JOINT newVegas:Spine1
		{
			OFFSET 0.000000 11.900002 -1.516600
			CHANNELS 3 Xrotation Yrotation Zrotation
			JOINT newVegas:Spine2
			{
				OFFSET 0.000000 13.600006 -2.842500
				CHANNELS 3 Xrotation Yrotation Zrotation
				JOINT newVegas:Neck
				{
					OFFSET 0.000000 9.624100 -2.890100
					CHANNELS 3 Xrotation Yrotation Zrotation
					JOINT newVegas:Head
					{
						OFFSET 0.000000 14.068802 -1.351900
						CHANNELS 3 Xrotation Yrotation Zrotation
						JOINT newVegas:Hair_Back
						{
							OFFSET 0.000000 3.231903 -17.524799
							CHANNELS 3 Xrotation Yrotation Zrotation
							End Site
							{
								OFFSET 0.000000 19.849884 0.000000
							}
						}
						JOINT newVegas:Hair_Front
						{
							OFFSET 0.000000 31.260406 4.573800
							CHANNELS 3 Xrotation Yrotation Zrotation
							JOINT newVegas:Hair_Front1
							{
								OFFSET 0.000000 2.284103 11.993300
								CHANNELS 3 Xrotation Yrotation Zrotation
								JOINT newVegas:Hair_Front2
								{
									OFFSET 0.000000 2.284103 11.993300
									CHANNELS 3 Xrotation Yrotation Zrotation
									End Site
									{
										OFFSET 0.000000 12.208862 0.000000
									}
								}
							}
						}
						JOINT newVegas:Jowel
						{
							OFFSET 0.000000 -7.458206 6.864100
							CHANNELS 3 Xrotation Yrotation Zrotation
							End Site
							{
								OFFSET 0.000000 19.849884 0.000000
							}
						}
					}
				}
				JOINT newVegas:LeftShoulder
				{
					OFFSET 15.263000 10.923401 -0.547700
					CHANNELS 3 Xrotation Yrotation Zrotation
					JOINT newVegas:LeftArm
					{
						OFFSET 25.438599 -2.830597 -13.032500
						CHANNELS 3 Xrotation Yrotation Zrotation
						JOINT newVegas:LeftForeArm
						{
							OFFSET 29.960503 0.000000 0.000000
							CHANNELS 3 Xrotation Yrotation Zrotation
							JOINT newVegas:LeftHand
							{
								OFFSET 27.849251 0.000000 0.000000
								CHANNELS 3 Xrotation Yrotation Zrotation
								JOINT newVegas:LeftHandThumb1
								{
									OFFSET 4.487587 -3.305161 6.305391
									CHANNELS 3 Xrotation Yrotation Zrotation
									JOINT newVegas:LeftHandThumb2
									{
										OFFSET 5.480453 -3.164139 3.164143
										CHANNELS 3 Xrotation Yrotation Zrotation
										JOINT newVegas:LeftHandThumb3
										{
											OFFSET 5.159721 -2.978973 2.978967
											CHANNELS 3 Xrotation Yrotation Zrotation
											End Site
											{
												OFFSET 2.494507 5.926697 1.738678
											}
										}
									}
								}
								JOINT newVegas:LeftHandIndex1
								{
									OFFSET 18.578728 -0.527832 5.208049
									CHANNELS 3 Xrotation Yrotation Zrotation
									JOINT newVegas:LeftHandIndex2
									{
										OFFSET 3.192009 0.000000 0.000000
										CHANNELS 3 Xrotation Yrotation Zrotation
										JOINT newVegas:LeftHandIndex3
										{
											OFFSET 3.835129 0.000000 0.000000
											CHANNELS 3 Xrotation Yrotation Zrotation
											End Site
											{
												OFFSET -0.034599 3.816971 0.371180
											}
										}
									}
								}
								JOINT newVegas:LeftHandMiddle1
								{
									OFFSET 18.476105 0.000000 0.000000
									CHANNELS 3 Xrotation Yrotation Zrotation
									JOINT newVegas:LeftHandMiddle2
									{
										OFFSET 3.324875 0.000000 0.000000
										CHANNELS 3 Xrotation Yrotation Zrotation
										JOINT newVegas:LeftHandMiddle3
										{
											OFFSET 4.596550 0.000000 0.000000
											CHANNELS 3 Xrotation Yrotation Zrotation
											End Site
											{
												OFFSET 0.057701 4.578827 0.399218
											}
										}
									}
								}
								JOINT newVegas:LeftHandRing1
								{
									OFFSET 17.732719 0.121887 -4.201567
									CHANNELS 3 Xrotation Yrotation Zrotation
									JOINT newVegas:LeftHandRing2
									{
										OFFSET 2.733170 0.000000 0.000000
										CHANNELS 3 Xrotation Yrotation Zrotation
										JOINT newVegas:LeftHandRing3
										{
											OFFSET 3.178268 0.000000 0.000000
											CHANNELS 3 Xrotation Yrotation Zrotation
											End Site
											{
												OFFSET 0.119102 3.170624 0.185394
											}
										}
									}
								}
								JOINT newVegas:LeftHandPinky1
								{
									OFFSET 15.989624 -0.606689 -7.535461
									CHANNELS 3 Xrotation Yrotation Zrotation
									JOINT newVegas:LeftHandPinky2
									{
										OFFSET 2.538986 0.000000 0.000000
										CHANNELS 3 Xrotation Yrotation Zrotation
										JOINT newVegas:LeftHandPinky3
										{
											OFFSET 2.593102 0.000000 0.000000
											CHANNELS 3 Xrotation Yrotation Zrotation
											End Site
											{
												OFFSET -0.150902 2.584198 0.152708
											}
										}
									}
								}
							}
							JOINT newVegas:Left_Sleeve
							{
								OFFSET 0.267448 -0.649796 0.577675
								CHANNELS 3 Xrotation Yrotation Zrotation
								End Site
								{
									OFFSET 0.000000 15.991241 0.000000
								}
							}
							JOINT newVegas:Left_CapeC
							{
								OFFSET 15.715958 -8.608795 -6.935905
								CHANNELS 3 Xrotation Yrotation Zrotation
								JOINT newVegas:Left_CapeC1
								{
									OFFSET 0.000000 -8.688499 0.000000
									CHANNELS 3 Xrotation Yrotation Zrotation
									End Site
									{
										OFFSET 0.000000 8.688499 0.000000
									}
								}
							}
						}
						JOINT newVegas:Left_CapeB
						{
							OFFSET 26.118385 -8.608795 -7.079235
							CHANNELS 3 Xrotation Yrotation Zrotation
							JOINT newVegas:Left_CapeB1
							{
								OFFSET 0.000000 -8.688499 0.000000
								CHANNELS 3 Xrotation Yrotation Zrotation
								End Site
								{
									OFFSET 0.000000 8.688499 0.000000
								}
							}
						}
						JOINT newVegas:Left_CapeA
						{
							OFFSET 5.115639 -8.608795 -10.395809
							CHANNELS 3 Xrotation Yrotation Zrotation
							JOINT newVegas:Left_CapeA1
							{
								OFFSET 0.000000 -8.688499 0.000000
								CHANNELS 3 Xrotation Yrotation Zrotation
								End Site
								{
									OFFSET 0.000000 8.688499 0.000000
								}
							}
						}
					}
				}
				JOINT newVegas:RightShoulder
				{
					OFFSET -15.263000 10.923401 -0.547700
					CHANNELS 3 Xrotation Yrotation Zrotation
					JOINT newVegas:RightArm
					{
						OFFSET -25.438599 -2.830597 -13.032500
						CHANNELS 3 Xrotation Yrotation Zrotation
						JOINT newVegas:RightForeArm
						{
							OFFSET -29.960503 0.000000 0.000000
							CHANNELS 3 Xrotation Yrotation Zrotation
							JOINT newVegas:RightHand
							{
								OFFSET -27.849251 0.000000 0.000000
								CHANNELS 3 Xrotation Yrotation Zrotation
								JOINT newVegas:RightHandThumb1
								{
									OFFSET -4.487587 -3.305161 6.305391
									CHANNELS 3 Xrotation Yrotation Zrotation
									JOINT newVegas:RightHandThumb2
									{
										OFFSET -5.480453 -3.164139 3.164143
										CHANNELS 3 Xrotation Yrotation Zrotation
										JOINT newVegas:RightHandThumb3
										{
											OFFSET -5.159721 -2.978973 2.978967
											CHANNELS 3 Xrotation Yrotation Zrotation
											End Site
											{
												OFFSET -2.494507 5.926697 1.738678
											}
										}
									}
								}
								JOINT newVegas:RightHandIndex1
								{
									OFFSET -18.578728 -0.527832 5.208049
									CHANNELS 3 Xrotation Yrotation Zrotation
									JOINT newVegas:RightHandIndex2
									{
										OFFSET -3.192009 0.000000 0.000000
										CHANNELS 3 Xrotation Yrotation Zrotation
										JOINT newVegas:RightHandIndex3
										{
											OFFSET -3.835129 0.000000 0.000000
											CHANNELS 3 Xrotation Yrotation Zrotation
											End Site
											{
												OFFSET 0.034599 3.816971 0.371180
											}
										}
									}
								}
								JOINT newVegas:RightHandMiddle1
								{
									OFFSET -18.476105 0.000000 0.000000
									CHANNELS 3 Xrotation Yrotation Zrotation
									JOINT newVegas:RightHandMiddle2
									{
										OFFSET -3.324875 0.000000 0.000000
										CHANNELS 3 Xrotation Yrotation Zrotation
										JOINT newVegas:RightHandMiddle3
										{
											OFFSET -4.596550 0.000000 0.000000
											CHANNELS 3 Xrotation Yrotation Zrotation
											End Site
											{
												OFFSET -0.057701 4.578827 0.399218
											}
										}
									}
								}
								JOINT newVegas:RightHandRing1
								{
									OFFSET -17.732719 0.121887 -4.201567
									CHANNELS 3 Xrotation Yrotation Zrotation
									JOINT newVegas:RightHandRing2
									{
										OFFSET -2.733170 0.000000 0.000000
										CHANNELS 3 Xrotation Yrotation Zrotation
										JOINT newVegas:RightHandRing3
										{
											OFFSET -3.178268 0.000000 0.000000
											CHANNELS 3 Xrotation Yrotation Zrotation
											End Site
											{
												OFFSET -0.119102 3.170624 0.185394
											}
										}
									}
								}
								JOINT newVegas:RightHandPinky1
								{
									OFFSET -15.989624 -0.606689 -7.535461
									CHANNELS 3 Xrotation Yrotation Zrotation
									JOINT newVegas:RightHandPinky2
									{
										OFFSET -2.538986 0.000000 0.000000
										CHANNELS 3 Xrotation Yrotation Zrotation
										JOINT newVegas:RightHandPinky3
										{
											OFFSET -2.593102 0.000000 0.000000
											CHANNELS 3 Xrotation Yrotation Zrotation
											End Site
											{
												OFFSET 0.150902 2.584198 0.152708
											}
										}
									}
								}
							}
							JOINT newVegas:Right_CapeC
							{
								OFFSET -15.715958 -8.608795 -6.935905
								CHANNELS 3 Xrotation Yrotation Zrotation
								JOINT newVegas:Right_CapeC1
								{
									OFFSET 0.000000 -8.688499 0.000000
									CHANNELS 3 Xrotation Yrotation Zrotation
									End Site
									{
										OFFSET 0.000000 8.688499 0.000000
									}
								}
							}
							JOINT newVegas:Right_Sleeve
							{
								OFFSET -0.267448 -0.649994 0.577675
								CHANNELS 3 Xrotation Yrotation Zrotation
								End Site
								{
									OFFSET 0.000000 15.991302 0.000000
								}
							}
						}
						JOINT newVegas:Right_CapeA
						{
							OFFSET -5.115540 -8.608795 -10.395824
							CHANNELS 3 Xrotation Yrotation Zrotation
							JOINT newVegas:Right_CapeA1
							{
								OFFSET 0.000000 -8.688499 0.000000
								CHANNELS 3 Xrotation Yrotation Zrotation
								End Site
								{
									OFFSET 0.000000 8.688499 0.000000
								}
							}
						}
						JOINT newVegas:Right_CapeB
						{
							OFFSET -26.118187 -8.608795 -7.079266
							CHANNELS 3 Xrotation Yrotation Zrotation
							JOINT newVegas:Right_CapeB1
							{
								OFFSET 0.000000 -8.688499 0.000000
								CHANNELS 3 Xrotation Yrotation Zrotation
								End Site
								{
									OFFSET 0.000000 8.688499 0.000000
								}
							}
						}
					}
				}
				JOINT newVegas:Left_Collar
				{
					OFFSET 18.625099 8.655502 8.828100
					CHANNELS 3 Xrotation Yrotation Zrotation
					JOINT newVegas:Left_Collar1
					{
						OFFSET 14.783401 10.540405 -1.259500
						CHANNELS 3 Xrotation Yrotation Zrotation
						End Site
						{
							OFFSET 0.000000 18.199875 0.000000
						}
					}
				}
				JOINT newVegas:Collar_Back
				{
					OFFSET 0.000000 15.630707 -20.132601
					CHANNELS 3 Xrotation Yrotation Zrotation
					End Site
					{
						OFFSET 0.000000 22.523010 0.000000
					}
				}
				JOINT newVegas:Left_Peck
				{
					OFFSET 17.239599 -5.132599 25.482599
					CHANNELS 3 Xrotation Yrotation Zrotation
					End Site
					{
						OFFSET 0.000000 22.523010 0.000000
					}
				}
				JOINT newVegas:Right_Peck
				{
					OFFSET -17.239599 -5.132202 25.482599
					CHANNELS 3 Xrotation Yrotation Zrotation
					End Site
					{
						OFFSET 0.000000 22.523010 0.000000
					}
				}
				JOINT newVegas:Right_Collar
				{
					OFFSET -18.625099 8.655792 8.828100
					CHANNELS 3 Xrotation Yrotation Zrotation
					JOINT newVegas:Right_Collar1
					{
						OFFSET -14.783401 10.539993 -1.259500
						CHANNELS 3 Xrotation Yrotation Zrotation
						End Site
						{
							OFFSET 0.000000 18.199631 0.000000
						}
					}
				}
			}
		}
		JOINT newVegas:Belly
		{
			OFFSET 0.000000 -6.540398 9.014299
			CHANNELS 3 Xrotation Yrotation Zrotation
			End Site
			{
				OFFSET 0.000000 11.566666 0.000000
			}
		}
	}
	JOINT newVegas:ElvisFacialAnim_Joint
	{
		OFFSET 1.000000 -95.330101 -8.825800
		CHANNELS 3 Xrotation Yrotation Zrotation
		End Site
		{
			OFFSET 0.000000 35.315800 0.000000
		}
	}
}
MOTION
Frames: 4
Frame Time: 0.016667
0.756415 41.859451 -3.768684 0.289735 0.760221 0.631957 -0.000000 -0.000000 0.000000 -21.290057 -10.099804 17.062788 105.181450 4.615783 1.141108 37.386188 -3.914004 -20.410227 -0.000001 0.000001 0.000000 0.000001 0.000001 0.000001 -20.353496 6.457432 -17.102117 106.808722 5.324186 0.031059 29.583069 3.276808 17.690221 -0.000002 0.000001 -0.000000 -0.000001 -0.000001 0.000000 1.234116 0.225338 0.127904 0.110009 0.122969 -0.090715 0.108809 0.114775 -0.092286 -0.156483 -0.000065 0.047433 -0.156449 -0.000064 0.047434 0.000000 -0.000000 -0.000000 -0.156571 -0.000061 0.047432 -0.156424 -0.000067 0.047433 -0.000000 -0.000000 -0.000000 0.000000 -0.000000 -0.000000 0.606873 -3.284651 -22.051940 11.464578 -16.354594 -52.988526 -0.000002 -20.361390 -0.000006 -6.670435 11.936425 -5.315168 -8.139811 -14.751878 10.508548 11.522757 33.951402 -1.839705 -0.000002 -0.000000 -0.000003 -0.453777 -5.320378 -4.184409 0.332718 1.947939 -19.383536 0.000001 -0.000000 -0.000001 -0.401515 -0.921338 -7.463547 1.036275 3.328474 -34.578010 -0.000000 0.000001 0.000000 -0.149525 2.814363 -20.128134 0.105532 1.108095 -10.879696 0.000001 -0.000001 0.000001 -7.736877 8.986372 -14.639672 0.589051 2.562150 -25.891244 0.000000 -0.000003 -0.000001 -0.000001 -0.000001 -0.000000 -0.000001 -0.000001 -0.000000 -0.000001 -0.000001 0.000000 -0.000001 0.000000 -0.000000 -0.000001 0.000000 -0.000000 -0.000001 0.000000 -0.000000 -0.000001 0.000000 -0.000001 -0.115224 9.903020 22.054928 7.750432 7.038401 56.271968 -0.000009 19.886635 0.000028 -2.747044 -6.054060 1.890065 -17.666038 6.240236 -1.517377 -4.146468 -35.461400 -9.882263 0.000000 -0.000001 0.000001 13.894431 5.077775 9.900002 0.129268 -1.090757 13.516390 0.000005 -0.000000 -0.000001 -0.138697 -1.041594 7.048803 0.785986 -2.591008 33.745359 0.000001 -0.000001 -0.000000 0.562754 -5.309928 11.245067 0.534011 -2.167221 27.681010 0.000000 0.000001 0.000001 -12.301542 -16.678057 11.029489 0.315741 -1.687198 21.197745 0.000002 0.000005 -0.000000 -0.000001 0.000001 -0.000001 -0.000002 -0.000000 0.000000 -0.000001 0.000001 -0.000001 -0.000000 0.000000 0.000000 -0.000000 0.000000 0.000000 -0.000000 0.000000 0.000000 -0.000000 -0.000000 0.000000 -0.000000 -0.000000 0.000000 -0.000000 -0.000000 0.000000 -0.000000 -0.000000 0.000000 -0.000000 -0.000000 0.000000 -0.000000 -0.000000 0.000000 -0.000000 -0.000000 0.000000 -0.000000 -0.000000 0.000000 -0.000000 0.000000 0.000000 -0.000000 -0.000000 0.000000 
0.749398 41.858704 -3.777882 0.297583 0.676597 0.529508 0.000000 0.000000 0.000000 -21.199654 -10.173721 17.219160 105.218463 4.527327 1.036887 37.320820 -3.896502 -20.455204 -0.000001 -0.000003 -0.000000 0.000000 -0.000001 -0.000000 -20.482943 6.418226 -16.952975 106.814152 5.184065 -0.053829 29.668877 3.355742 17.631029 -0.000001 -0.000000 -0.000000 -0.000000 -0.000000 -0.000000 1.200138 0.246189 0.130478 0.052092 0.122970 -0.079784 0.095956 0.114775 -0.080994 -0.091809 -0.001915 0.052084 -0.091805 -0.001914 0.052084 0.000000 -0.000000 -0.000000 -0.091738 -0.001914 0.052084 -0.091815 -0.001914 0.052084 -0.000000 -0.000000 -0.000000 0.000000 -0.000000 -0.000000 0.608520 -3.276006 -22.034009 11.676376 -16.033980 -52.975429 0.000003 -20.991229 0.000008 -6.051232 11.322426 -4.940432 -8.139815 -14.751866 10.508554 11.522767 33.951388 -1.839741 0.000002 -0.000003 -0.000001 -0.453761 -5.320384 -4.184401 0.332709 1.947938 -19.383539 0.000001 0.000000 0.000001 -0.401516 -0.921344 -7.463577 1.036275 3.328477 -34.578007 0.000000 -0.000001 -0.000004 -0.149520 2.814354 -20.128173 0.105526 1.108090 -10.879704 0.000000 0.000001 0.000002 -7.736879 8.986375 -14.639655 0.589057 2.562152 -25.891213 -0.000000 -0.000003 -0.000003 -0.000000 0.000000 -0.000001 -0.000000 0.000000 -0.000001 -0.000001 0.000001 -0.000001 -0.000001 0.000000 0.000000 -0.000000 0.000000 0.000000 -0.000001 0.000000 0.000000 -0.000000 -0.000000 -0.000000 -0.112318 9.880027 22.058282 7.556013 7.063309 56.310624 -0.000001 19.520838 0.000010 -3.871947 -5.621832 1.949119 -17.631776 6.226389 -1.472166 -4.122588 -35.426470 -9.858961 0.000001 -0.000000 -0.000001 13.897260 5.063020 9.896207 0.129267 -1.090754 13.516406 -0.000003 0.000001 -0.000000 -0.138554 -1.041046 7.042434 0.785987 -2.591017 33.745369 -0.000003 -0.000001 0.000001 0.562416 -5.309466 11.238684 0.534005 -2.167226 27.680979 -0.000002 0.000002 0.000003 -12.305487 -16.660373 11.028091 0.315744 -1.687196 21.197738 0.000000 0.000003 -0.000002 -0.000001 -0.000002 0.000001 -0.000003 -0.000000 0.000001 -0.000001 -0.000002 0.000001 0.000001 0.000001 0.000000 0.000001 0.000001 0.000000 0.000001 0.000001 0.000000 0.000001 0.000001 0.000000 0.000000 0.000000 -0.000000 0.000000 0.000000 -0.000000 0.000000 0.000000 -0.000000 0.000000 0.000000 -0.000000 0.000000 0.000000 -0.000000 0.000000 0.000000 -0.000000 0.000000 0.000000 -0.000000 -0.000000 -0.000000 0.000000 0.000000 0.000000 0.000000 
0.742339 41.858131 -3.785709 0.303760 0.594349 0.427150 -0.000000 -0.000000 0.000000 -21.109244 -10.235082 17.373426 105.253031 4.423378 0.943622 37.253839 -3.861606 -20.511147 -0.000000 -0.000003 -0.000000 0.000001 -0.000002 -0.000000 -20.605439 6.378647 -16.804372 106.816201 5.040534 -0.137617 29.753240 3.438685 17.571404 -0.000001 0.000001 -0.000002 0.000000 -0.000001 -0.000000 1.162919 0.264716 0.133383 -0.003815 0.122969 -0.069356 0.082491 0.114775 -0.070304 -0.028379 -0.004756 0.055827 -0.028375 -0.004756 0.055827 -0.000000 -0.000000 -0.000000 -0.028380 -0.004755 0.055827 -0.028381 -0.004756 0.055826 0.000000 -0.000000 0.000000 -0.000000 -0.000000 -0.000000 0.612546 -3.237233 -22.011260 11.987009 -15.467812 -52.997552 0.000000 -21.987794 -0.000020 -5.382026 10.694937 -4.502706 -8.139811 -14.751878 10.508570 11.522763 33.951385 -1.839751 0.000001 -0.000002 -0.000005 -0.453765 -5.320385 -4.184394 0.332706 1.947943 -19.383542 -0.000000 -0.000000 -0.000000 -0.401519 -0.921339 -7.463565 1.036276 3.328474 -34.578021 0.000000 -0.000001 0.000000 -0.149528 2.814357 -20.128163 0.105524 1.108094 -10.879704 0.000001 -0.000001 0.000000 -7.736883 8.986382 -14.639672 0.589043 2.562153 -25.891222 0.000000 -0.000002 -0.000002 0.000000 -0.000000 -0.000000 0.000000 -0.000000 -0.000000 -0.000001 0.000000 0.000000 0.000001 0.000000 -0.000000 0.000001 0.000000 -0.000000 0.000001 0.000000 -0.000000 0.000001 0.000000 -0.000000 -0.109608 9.836588 22.070940 7.347442 6.953229 56.327911 0.000006 19.192794 -0.000002 -5.078325 -5.110203 2.168247 -17.553644 6.187622 -1.350088 -4.048881 -35.369366 -9.802731 0.000001 -0.000001 0.000001 13.900048 5.031321 9.920347 0.129435 -1.091424 13.524782 -0.000003 0.000001 0.000001 -0.138982 -1.042689 7.061639 0.786363 -2.591575 33.753726 0.000000 -0.000002 -0.000001 0.563441 -5.310869 11.257969 0.534321 -2.167819 27.689322 -0.000001 -0.000001 0.000000 -12.306925 -16.625898 11.059033 0.316047 -1.688009 21.208373 0.000002 0.000003 -0.000002 -0.000003 0.000002 -0.000000 -0.000003 -0.000000 0.000001 -0.000003 0.000001 0.000000 -0.000000 0.000001 0.000000 -0.000000 0.000001 0.000000 -0.000000 0.000001 0.000000 -0.000000 0.000001 0.000000 0.000000 0.000000 -0.000000 0.000000 0.000000 -0.000000 0.000000 0.000000 -0.000000 0.000000 0.000000 -0.000000 0.000000 0.000000 -0.000000 0.000000 0.000000 -0.000000 0.000000 0.000000 -0.000000 -0.000000 -0.000000 0.000000 -0.000000 -0.000000 0.000000 
0.735261 41.857620 -3.792681 0.308835 0.512947 0.324862 0.000000 0.000000 -0.000000 -21.020886 -10.283786 17.527136 105.285863 4.305219 0.860414 37.185285 -3.812464 -20.573133 -0.000001 -0.000003 -0.000000 -0.000001 -0.000003 -0.000000 -20.723677 6.337617 -16.655182 106.816140 4.910972 -0.220089 29.836332 3.507758 17.519686 -0.000002 -0.000000 0.000002 0.000000 -0.000001 0.000000 1.123675 0.281805 0.136485 -0.058467 0.122970 -0.059246 0.068642 0.114775 -0.059990 0.033408 -0.007846 0.060365 0.033413 -0.007846 0.060365 -0.000000 -0.000000 -0.000000 0.033546 -0.007847 0.060366 0.033330 -0.007846 0.060365 0.000000 0.000000 -0.000000 -0.000000 -0.000000 -0.000000 0.620312 -3.169125 -21.988828 12.328126 -14.761512 -53.058935 -0.000000 -23.142216 0.000029 -4.776234 10.167326 -4.082470 -8.139822 -14.751880 10.508532 11.522761 33.951388 -1.839740 -0.000000 -0.000001 -0.000001 -0.453767 -5.320382 -4.184389 0.332713 1.947938 -19.383534 0.000002 0.000000 0.000002 -0.401520 -0.921342 -7.463571 1.036272 3.328468 -34.578010 0.000001 -0.000002 -0.000003 -0.149527 2.814361 -20.128147 0.105529 1.108089 -10.879721 0.000002 -0.000001 0.000001 -7.736889 8.986377 -14.639657 0.589055 2.562154 -25.891215 0.000000 -0.000003 0.000001 -0.000003 -0.000001 -0.000000 -0.000003 -0.000001 -0.000000 -0.000004 -0.000000 0.000000 0.000001 0.000000 0.000001 0.000002 0.000000 0.000000 0.000001 0.000000 0.000001 0.000002 -0.000000 0.000001 -0.108020 9.779243 22.093355 7.155695 6.738902 56.317143 0.000002 18.933008 -0.000008 -6.140824 -4.611274 2.521070 -17.448347 6.132576 -1.164806 -3.936304 -35.319267 -9.728664 0.000000 0.000001 -0.000000 13.899338 4.991639 9.992873 0.130049 -1.093983 13.557002 0.000001 0.000001 -0.000000 -0.140427 -1.048366 7.128611 0.787808 -2.593742 33.785712 0.000001 0.000001 0.000003 0.566997 -5.315725 11.325260 0.535537 -2.170128 27.721340 -0.000003 0.000001 0.000002 -12.302568 -16.587960 11.141756 0.317157 -1.690837 21.245771 -0.000000 -0.000002 -0.000003 -0.000002 -0.000000 0.000000 -0.000002 -0.000001 0.000001 -0.000002 -0.000000 0.000000 -0.000002 0.000001 0.000000 -0.000001 0.000001 0.000000 -0.000002 0.000001 0.000000 -0.000001 0.000001 0.000000 0.000000 0.000000 0.000000 0.000000 0.000000 0.000000 0.000000 0.000000 0.000000 0.000000 0.000000 0.000000 0.000000 0.000000 0.000000 0.000000 0.000000 0.000000 0.000000 0.000000 0.000000 0.000000 -0.000000 -0.000000 0.000000 0.000000 -0.000000 
